<svg xmlns="http://www.w3.org/2000/svg" viewBox="0 0 421.44 279.31"><defs><style>.cls-1{fill:#968674;}.cls-1,.cls-10,.cls-11,.cls-12,.cls-2,.cls-3,.cls-4,.cls-5,.cls-6,.cls-7,.cls-8,.cls-9{stroke:#1d1d1b;stroke-miterlimit:10;}.cls-2{fill:#3d3b2f;}.cls-3{fill:none;}.cls-4{fill:#f59c3a;}.cls-5{fill:#841911;}.cls-6{fill:#cac2b9;}.cls-7{fill:#f1eeeb;}.cls-8{fill:#75160e;}.cls-9{fill:#881912;}.cls-10{fill:#fcf7f8;}.cls-11{fill:#fbfafb;}.cls-12{fill:#58411f;}.cls-13{fill:#1d1d1b;}</style></defs><g id="Layer_2" data-name="Layer 2"><g id="Layer_1-2" data-name="Layer 1"><path class="cls-1" d="M401.16,169.64c0-8.69-8.36-15.74-18.66-15.74s-18.66,7-18.66,15.74H344.05c0-17.91,17.21-32.44,38.45-32.44s38.44,14.53,38.44,32.44Z"/><polygon id="Basement" class="cls-2" points="22.3 216.81 292.23 216.81 292.23 260.19 219.45 260.19 211.73 267.42 197.75 270.31 171.24 274.17 151.7 274.17 133.65 274.17 113.88 268.38 96.53 263.08 22.3 263.08 22.3 216.81"/><g id="Right_side_door_way" data-name="Right side door way"><polyline class="cls-3" points="345.98 112.07 345.98 105.57 292.57 105.57"/><path class="cls-4" d="M344.05,218.12H292.71V142.2h51.34v75.92Z"/><rect class="cls-5" x="292.71" y="159.55" width="40.25" height="58.57"/><rect class="cls-5" x="297.53" y="159.55" width="23.62" height="46.52"/><rect class="cls-5" x="292.71" y="142.2" width="40.25" height="17.35"/><rect class="cls-6" x="292.71" y="218.69" width="53.26" height="5.54"/><rect class="cls-6" x="292.71" y="224.65" width="55.9" height="5.54"/><rect class="cls-6" x="292.71" y="230.85" width="58.31" height="5.54"/><rect class="cls-6" x="292.71" y="236.49" width="61.01" height="5.54"/><rect class="cls-6" x="292.71" y="242.56" width="63.34" height="5.54"/><rect class="cls-6" x="292.71" y="248.76" width="65.67" height="5.54"/><rect class="cls-6" x="292.71" y="254.54" width="68.18" height="5.54"/><rect class="cls-6" x="292.71" y="259.97" width="70.14" height="5.54"/><polyline class="cls-3" points="343.57 187.7 346.46 187.7 364.54 230.35 362.86 259.97"/><polygon class="cls-5" points="349.58 142.2 292.71 142.2 292.71 136.66 345.98 136.66 349.58 136.66 349.58 142.2"/><polyline class="cls-3" points="345.98 112.07 292.3 112.07 299.74 105.52"/><line class="cls-3" x1="345.98" y1="112.07" x2="345.98" y2="136.66"/><line class="cls-3" x1="340.92" y1="112.07" x2="340.92" y2="136.66"/><line class="cls-3" x1="335.86" y1="112.07" x2="335.86" y2="136.66"/><line class="cls-3" x1="330.79" y1="112.07" x2="330.79" y2="136.66"/><line class="cls-3" x1="325.73" y1="112.07" x2="325.73" y2="136.66"/><line class="cls-3" x1="320.67" y1="112.07" x2="320.67" y2="136.66"/><line class="cls-3" x1="315.61" y1="112.07" x2="315.61" y2="136.66"/><line class="cls-3" x1="310.07" y1="112.07" x2="310.07" y2="136.66"/><polyline class="cls-3" points="292.57 105.57 299.94 112.07 299.94 136.66"/><line class="cls-3" x1="305.01" y1="112.07" x2="305.01" y2="136.66"/><rect class="cls-7" x="300.67" y="165.82" width="16.63" height="22.07"/><rect class="cls-8" x="300.67" y="191.49" width="15.18" height="11.93"/><rect class="cls-6" x="297.53" y="213.3" width="24.82" height="4.82"/><rect class="cls-6" x="297.53" y="206.07" width="21.93" height="7.23"/><line class="cls-3" x1="299.74" y1="112.1" x2="307.18" y2="105.54"/><line class="cls-3" x1="300.01" y1="105.59" x2="307.38" y2="112.1"/><line class="cls-3" x1="307.18" y1="112.07" x2="314.62" y2="105.52"/><line class="cls-3" x1="307.45" y1="105.57" x2="314.82" y2="112.07"/><line class="cls-3" x1="314.62" y1="112.05" x2="322.06" y2="105.49"/><line class="cls-3" x1="314.89" y1="105.54" x2="322.26" y2="112.05"/><line class="cls-3" x1="322.06" y1="112.03" x2="329.5" y2="105.47"/><line class="cls-3" x1="322.33" y1="105.52" x2="329.7" y2="112.03"/><line class="cls-3" x1="329.5" y1="112" x2="336.93" y2="105.45"/><line class="cls-3" x1="329.76" y1="105.49" x2="337.14" y2="112"/><line class="cls-3" x1="336.93" y1="111.98" x2="344.37" y2="105.42"/><line class="cls-3" x1="337.2" y1="105.47" x2="344.58" y2="111.98"/></g><polygon id="Main_house" data-name="Main house" class="cls-4" points="292.23 220 22.3 220 22.3 104.8 97.49 104.8 97.49 62.86 157.26 11.28 215.59 60.93 215.59 100.46 292.23 100.46 292.23 220"/><polygon id="Roof" class="cls-9" points="0.79 109.86 34.09 37.55 116.26 34.66 156.64 0.68 191.35 35.38 271.4 35.38 299.74 105.52 214.73 104.8 214.73 65.03 158.77 13.45 97.37 65.51 97.37 106.97 0.79 109.86"/><rect class="cls-10" x="53.63" y="146.73" width="30.85" height="41.94"/><rect class="cls-10" x="49.81" y="142.92" width="38.2" height="3.82"/><rect class="cls-10" x="49.81" y="189.07" width="38.2" height="5.54"/><rect class="cls-7" x="58.69" y="150.91" width="9.04" height="9.04"/><rect class="cls-7" x="58.69" y="163.36" width="9.04" height="20.41"/><rect class="cls-7" x="71.56" y="163.36" width="9.04" height="20.41"/><rect class="cls-7" x="71.56" y="150.91" width="9.04" height="9.04"/><rect class="cls-10" x="112.5" y="147.58" width="30.85" height="41.94"/><rect class="cls-10" x="108.68" y="143.76" width="38.2" height="3.82"/><rect class="cls-10" x="108.68" y="189.91" width="38.2" height="5.54"/><rect class="cls-7" x="117.56" y="151.75" width="9.04" height="9.04"/><rect class="cls-7" x="117.56" y="164.21" width="9.04" height="20.41"/><rect class="cls-7" x="130.43" y="164.21" width="9.04" height="20.41"/><rect class="cls-7" x="130.43" y="151.75" width="9.04" height="9.04"/><rect class="cls-10" x="168.23" y="147.58" width="30.85" height="41.94"/><rect class="cls-10" x="164.42" y="143.76" width="38.2" height="3.82"/><rect class="cls-10" x="164.42" y="189.91" width="38.2" height="5.54"/><rect class="cls-7" x="173.3" y="151.75" width="9.04" height="9.04"/><rect class="cls-7" x="173.3" y="164.21" width="9.04" height="20.41"/><rect class="cls-7" x="186.17" y="164.21" width="9.04" height="20.41"/><rect class="cls-7" x="186.17" y="151.75" width="9.04" height="9.04"/><rect class="cls-10" x="222.96" y="148.64" width="30.85" height="41.94"/><rect class="cls-10" x="219.15" y="144.82" width="38.2" height="3.82"/><rect class="cls-10" x="219.15" y="190.98" width="38.2" height="5.54"/><rect class="cls-7" x="228.02" y="152.82" width="9.04" height="9.04"/><rect class="cls-7" x="228.02" y="165.27" width="9.04" height="20.41"/><rect class="cls-7" x="240.9" y="165.27" width="9.04" height="20.41"/><rect class="cls-7" x="240.9" y="152.82" width="9.04" height="9.04"/><rect id="White_line_guttering" data-name="White line guttering" class="cls-11" x="22.3" y="128.41" width="269.93" height="7.23"/><g id="Downstairs_window" data-name="Downstairs window"><rect class="cls-10" x="224.25" y="223.23" width="26.19" height="31.33"/><rect class="cls-10" x="221.43" y="254.57" width="31.25" height="3.29"/><rect class="cls-7" x="226.23" y="225.21" width="22.22" height="27.37"/></g><g id="Downstairs_window-2" data-name="Downstairs window"><rect class="cls-10" x="56.1" y="222.48" width="26.19" height="31.33"/><rect class="cls-10" x="53.29" y="253.81" width="31.25" height="3.29"/><rect class="cls-7" x="58.08" y="224.46" width="22.22" height="27.37"/></g><g id="Door"><rect class="cls-12" x="141.84" y="223.37" width="29.4" height="55.43"/><rect class="cls-7" x="148.83" y="229.64" width="15.42" height="39.77"/></g><rect class="cls-10" x="148.91" y="29.44" width="16.85" height="18.48"/><rect class="cls-10" x="147.2" y="26.55" width="20.43" height="2.89"/><rect class="cls-10" x="145.29" y="47.92" width="23.94" height="2.57"/><rect class="cls-7" x="151.23" y="31.77" width="12.37" height="14.06"/><rect class="cls-10" x="168.38" y="64.95" width="30.85" height="41.94"/><rect class="cls-10" x="164.56" y="61.13" width="38.2" height="3.82"/><rect class="cls-10" x="164.56" y="107.29" width="38.2" height="5.54"/><rect class="cls-7" x="173.44" y="69.13" width="9.04" height="9.04"/><rect class="cls-7" x="173.44" y="81.58" width="9.04" height="20.41"/><rect class="cls-7" x="186.31" y="81.58" width="9.04" height="20.41"/><rect class="cls-7" x="186.31" y="69.13" width="9.04" height="9.04"/><rect class="cls-10" x="115.15" y="64.95" width="30.85" height="41.94"/><rect class="cls-10" x="111.33" y="61.13" width="38.2" height="3.82"/><rect class="cls-10" x="111.33" y="107.29" width="38.2" height="5.54"/><rect class="cls-7" x="120.21" y="69.13" width="9.04" height="9.04"/><rect class="cls-7" x="120.21" y="81.58" width="9.04" height="20.41"/><rect class="cls-7" x="133.08" y="81.58" width="9.04" height="20.41"/><rect class="cls-7" x="133.08" y="69.13" width="9.04" height="9.04"/><line class="cls-3" x1="420.94" y1="169.64" x2="420.94" y2="263.52"/><path class="cls-13" d="M372.71,150.06h0l-.4,0c-.12-.59-.23-1.2-.34-1.9s-.2-1.21-.23-1.49l.72-.2c-.07-.57-.1-.85-.16-1.41h0l-.47-.5h0c-.34,0-.5.08-.84.15-.63.11-1.23.23-2.1.41l-1.71.35-.74.16c.14.56.2.83.34,1.38h0l.5.45v0l.4-.05c.12.43.26,1,.4,1.6.1.44.24,1.09.38,1.76l-.69.22c.14.56.21.84.34,1.39h0c.19.18.29.27.47.46h0l.64-.14,1.22-.27,1.23-.24c.47-.09.75-.14,1-.17l.67-.09c-.09-.58-.14-.86-.22-1.44h0Zm-.33.65,0,.21,0,.23-.24,0-1.06.19c-.41.07-.83.16-1.24.25l-1.25.28-.23,0-.05-.22-.05-.21,0-.2.2-.07.3-.09.16,0c-.18-1-.37-1.89-.43-2.14-.26-1.18-.51-2-.63-2.47l-.52.07-.22,0,0-.19-.05-.2L367,146l.26,0,1.71-.36,2.09-.41h.09l.27-.05,0,.23,0,.21,0,.19-.2.06-.51.14c0,.38.07.65.28,1.86.19,1.05.37,1.92.56,2.78l.51,0h.21Z"/><path class="cls-13" d="M374.38,151.84h0l.64-.09.45-.06c.46-.06,1.16-.13,1.61-.17.27,0,2.38-.17,3.12-.19h.72c0-.28-.05-.42-.08-.7s0-.26,0-.5,0-.66,0-1,0-.4,0-.67h0l-.38-.55v0l-1.65.07c0,.25,0,.37,0,.61,0,.49,0,.49-.29.61l-.11,0c0-.43-.08-.92-.11-1.39-.06-1-.09-1.54-.09-1.89l.17,0,.61-.09c0-.58,0-.87,0-1.44h0l-.41-.52v0l-.79.09-1.52.15c-.82.08-1.62.15-2.46.25l-.77.09.2,1.4h0l.45.51h.4l.22,1.68c.08.57.16,1.19.21,1.74l-.73.19.2,1.39h0l0,0Zm-.09-1.2,0-.21,0-.19.2-.05.51-.13c0-.63-.14-1.41-.22-2.1s-.23-1.9-.35-2.56h-.76l0-.2,0-.21,0-.22.26,0h0l2.46-.25,1.53-.15.28,0V145l-.21,0-.57.08c0,.36,0,.88.12,2.28,0,.51.09,1,.14,1.53s.05.53.09.89a2.88,2.88,0,0,0,1-.19c.56-.23.56-.46.56-1v-.22H380v.23c0,.34,0,.67,0,1a3.54,3.54,0,0,0,.05.53l0,.25h-.26c-.75,0-2.9.18-3.17.21-.46,0-1.17.13-1.64.19l-.46.06-.23,0Z"/><path class="cls-13" d="M382.64,151.29h.45l1.62,0c.27,0,2.38.14,3.12.21l.71.08c0-.28,0-.42,0-.7a3.15,3.15,0,0,1,0-.5c0-.33.07-.66.12-1l.1-.65h0l-.31-.59v0c-.65-.06-1-.09-1.64-.13,0,.24,0,.36-.07.6,0,.48,0,.48-.36.57l-.12,0c0-.46,0-.93.07-1.4.06-1,.1-1.54.14-1.89h.8c.06-.58.1-.87.17-1.45h0l-.35-.59v0l-.8,0-1.52,0-2.47-.08h-.77l0,1.41h0l.38.55h0l.39,0c0,.62,0,1.32,0,1.7,0,.57,0,1.2,0,1.75l-.74.1c0,.56,0,.84,0,1.4h0c.14.23.22.34.35.56h.66Zm-.58-1.2v-.4l.21,0,.52-.06c0-.63,0-1.42,0-2.11s0-1.91,0-2.59l-.35,0-.18,0-.22,0v-.64h.29c.81,0,1.64,0,2.46.07l1.54,0h.28l0,.24,0,.21,0,.19h-.8c0,.36-.09.87-.16,2.28,0,.51,0,1-.06,1.53s0,.54,0,.9a2.8,2.8,0,0,0,1-.07c.58-.16.61-.38.68-.91l0-.21h.23l.27,0,.25,0,0,.23c0,.33-.08.67-.11,1a3.4,3.4,0,0,0,0,.53v.25l-.26,0c-.75-.07-2.9-.19-3.17-.2l-1.65,0h-.69Z"/><path class="cls-13" d="M407.72,150.76l.53-1.29h0l-.15-.67,0,0,0-.06-.69-.28-.6-.23-.58-.21L406,148h0l-.22-.08-.31-.12-.67-.24c-.21.53-.32.79-.52,1.32h0l.17.65h0l.4.18c0,.17-.09.33-.14.49a.25.25,0,0,1,0,.07l-.29-.63c-.13-.3-.93-2-1.12-2.37-.06-.11-.09-.16-.14-.27l-.32-.1-.34-.1-.56-.16-.64-.19-.54-.16-.71-.2c-.15.55-.22.82-.36,1.36h0c.09.25.13.38.22.64v0h0l.33.13-.16.62c0,.11-.31,1.1-.57,1.87-.13.38-.22.63-.3.82l-.67-.09-.35,1.35h0c.07.25.11.38.19.63l0,0v0l.63.18.51.14.46.12.74.25.64.22c.17-.54.26-.81.44-1.35h0c-.07-.26-.1-.39-.17-.64h0l-.31-.14.12-.58.21.45c.16.34.3.68.43,1,.21.48.37.86.44,1s.19.43.31.72c.83.3,1.25.45,2.08.78l.23-.6c.31-.85.39-1,.53-1.4a22.2,22.2,0,0,1,1.39-3Zm-.3-1.56-.07.19-.08.19-.22-.07-.45-.12a19.47,19.47,0,0,0-1.55,3.37c-.13.35-.21.55-.52,1.41l-.07.21-.23-.09c-.47-.18-.71-.26-1.19-.43l-.11,0,0-.1c-.07-.18-.11-.27-.19-.45s-.48-1.13-.89-2c-.26-.57-.54-1.15-.76-1.59a17.75,17.75,0,0,0-.54,2.62l.33.16.19.08-.06.19-.06.2-.07.22-.23-.08-.76-.25-.48-.13-.51-.13-.22-.06.06-.22.05-.2.05-.19.21,0,.39.06a7.16,7.16,0,0,0,.46-1.14c.27-.77.55-1.77.59-1.88.16-.56.24-.93.36-1.49l-.31-.12-.13-.05-.21-.09.06-.19,0-.2.06-.22.25.07.52.16.65.2.58.16.31.09.12,0,.05.09c.17.33.93,1.93,1.12,2.35l.17.36c.33.73.49,1.11.61,1.38,0-.1.07-.21.11-.32l.29-.86a10.41,10.41,0,0,0,.33-1.36l-.41-.19-.22-.1.08-.19.08-.2.08-.2.23.09.3.11.23.09.29.11.58.21.59.22.24.1Z"/><path class="cls-13" d="M358.61,154c.23.54.34.81.56,1.35l.54.39.62-.27c.71-.3.88-.35,1.27-.5l.91-.31.85-.28a4.93,4.93,0,0,0,3.05-2.24,3.8,3.8,0,0,0,.16-2.47,3.05,3.05,0,0,0-1.22-1.8,3.19,3.19,0,0,0-2-1,5.82,5.82,0,0,0-2.3.32l-.1,0-.52.19c-.5.19-1,.39-1.52.57l-1.25.47-.38.15-.66.26.47,1.32h0l.57.37h0l.41-.11c.26.6.48,1.15.54,1.31.13.32.43,1.12.72,1.92Zm-.5-4.54c-.19.06-.38.13-.51.16l-.23.06-.07-.19-.07-.2-.07-.2.23-.09.37-.14,1.25-.47,1.53-.58.52-.19.08,0a5.28,5.28,0,0,1,2.08-.29,2.64,2.64,0,0,1,2.41,2,3.33,3.33,0,0,1-.11,2.2,4.5,4.5,0,0,1-2.8,2l-.86.29-.93.32c-.4.15-.57.21-1.29.52l-.22.1-.09-.21-.08-.2-.08-.2.21-.09.44-.2c-.3-.92-.68-1.93-.82-2.29S358.49,150.36,358.11,149.49Z"/><path class="cls-13" d="M362.09,152c.18.52.26.72.36,1a1,1,0,0,0,.49-.35,3.29,3.29,0,0,0-.18-2.23c-.51-1.57-.91-1.87-1.16-2a1,1,0,0,0-.65,0,19.08,19.08,0,0,0,.68,2.22C361.81,151.2,361.91,151.47,362.09,152Z"/><path class="cls-13" d="M394.3,145.79a.63.63,0,0,0-.67.4,7.54,7.54,0,0,0-.47,1.91v0A9.46,9.46,0,0,0,393,150c0,.55.25.71.45.74s.39.08.6-.45h0a10.32,10.32,0,0,0,.51-1.89,11.81,11.81,0,0,0,.24-1.82C394.78,146,394.52,145.83,394.3,145.79Z"/><path class="cls-13" d="M394.53,144.75c-2-.36-3.56.25-4.28,1.62a3.6,3.6,0,0,0-.38,1.28,3.72,3.72,0,0,0,.47,2.37,2.93,2.93,0,0,0,.4.79,4.4,4.4,0,0,0,2.82,1.6,4,4,0,0,0,2.78-.34,3.76,3.76,0,0,0,1.68-2.39,3.37,3.37,0,0,0-.22-2.37C397.51,146.17,396.53,145.11,394.53,144.75Zm1.36,6.34a3.57,3.57,0,0,1-2.49.3,3.91,3.91,0,0,1-2.58-1.41,3.29,3.29,0,0,1-.51-2.28,3.16,3.16,0,0,1,.36-1.15c.63-1.19,2-1.72,3.79-1.39a3.55,3.55,0,0,1,2.63,1.59,3,3,0,0,1,.27,2.19A3.32,3.32,0,0,1,395.89,151.09Z"/><path class="cls-13" d="M360,154l-.65.29.16.4.11,0c.73-.31.9-.38,1.3-.53l.87-.3.08,0,.85-.28a4.4,4.4,0,0,0,2.72-2,3.16,3.16,0,0,0,.1-2.12,2.53,2.53,0,0,0-2.32-1.95,5.14,5.14,0,0,0-2,.28l-.08,0-.52.19-1.53.58-1.25.47-.37.14-.11,0c.05.16.08.24.14.4l.11,0,.5-.16.11,0,.05.1c.38.87.79,1.92.88,2.15s.52,1.37.83,2.29Zm-1.64-4.59,0-.09,0-.08-.1,0-.11,0-.49.15h0l-.07-.23h0l.36-.14,1.25-.47,1.53-.57h0l.52-.19.08,0a5.14,5.14,0,0,1,2-.27,2.45,2.45,0,0,1,2.24,1.88,3.14,3.14,0,0,1-.09,2.05,4.28,4.28,0,0,1-2.67,1.91l-.85.29-.08,0-.86.3c-.41.15-.58.21-1.31.52h0l-.09-.22.56-.25.09,0,0-.08,0-.1c-.31-.93-.69-2-.83-2.3S358.71,150.29,358.33,149.41Z"/><path class="cls-13" d="M361.88,152.09c.18.52.26.73.36,1l0,.1,0,.09.1,0,.1,0a1.17,1.17,0,0,0,.61-.44h0a3.25,3.25,0,0,0-.16-2.4,6.07,6.07,0,0,0-.69-1.6,1.12,1.12,0,0,0-.58-.5,1.23,1.23,0,0,0-.81,0l-.12,0-.1,0,0,.09,0,.1a19.37,19.37,0,0,0,.69,2.24Zm-1.05-3.6,0-.1.12,0a1.12,1.12,0,0,1,.73,0c.3.11.71.45,1.22,2a3.28,3.28,0,0,1,.17,2.32,1.08,1.08,0,0,1-.55.4l-.11,0,0-.1c-.11-.24-.18-.45-.36-1s-.28-.81-.47-1.34A18.18,18.18,0,0,1,360.83,148.49Z"/><path class="cls-13" d="M371.63,150.7h-.11l0-.1c-.19-.86-.37-1.72-.56-2.78a16.75,16.75,0,0,1-.29-1.87v-.09l.1,0,.51-.14.1,0v-.1l0-.21,0-.11-.13,0-.09,0h0l-2.08.4-1.71.36-.13,0,0,.11,0,.21,0,.09h.11l.51-.07.11,0,0,.09c.11.38.36,1.27.63,2.48.05.24.24,1.13.43,2.14v.1l-.1,0-.16.05-.29.09-.11,0,0,.1,0,.21,0,.11.12,0,1.24-.28,1.25-.25,1.06-.18.12,0,0-.11,0-.22,0-.1h-.11Zm.52.06,0,.21v0h0l-1.07.18c-.43.09-.87.17-1.25.26l-1.25.28h0l-.05-.22h0l.3-.1.15-.05.1,0,.09,0v-.08l0-.1c-.18-1-.38-1.9-.43-2.15-.26-1.2-.52-2.09-.62-2.47l0-.1,0-.08H368l-.11,0-.51.07h0l0-.2v0h0l1.71-.36,2.08-.41h.11v0l0,.21h0l-.51.15-.1,0-.09,0V146a16.43,16.43,0,0,0,.29,1.88c.2,1.06.37,1.92.57,2.78l0,.1,0,.09h.2l.5-.05h0Z"/><path class="cls-13" d="M375,150.67l1.64-.19c.28,0,2.42-.18,3.18-.2h.13v-.12a3.56,3.56,0,0,1-.05-.54c0-.34,0-.68,0-1v-.12h-.12l-.27,0h-.11v.11c0,.54,0,.83-.63,1.1a3.39,3.39,0,0,1-1.06.2h-.11v-.11c0-.36-.06-.54-.09-.9s-.1-1-.14-1.53c-.11-1.33-.13-1.87-.13-2.28V145h.11l.56-.08.11,0v-.43h-.14c-.33,0-.75.09-1.54.16s-1.65.15-2.45.24h0l-.13,0,0,.11,0,.21,0,.1h.76v.09c.12.67.27,2,.34,2.57s.18,1.47.22,2.11v.1l-.1,0-.5.12-.11,0,0,.1,0,.21,0,.11h.12l.37-.05Zm-.12-.08-.35,0h0l0-.21h0l.5-.12.1,0h.08v-.19c0-.64-.13-1.42-.21-2.12s-.23-1.9-.34-2.57v-.09l0-.08h-.76l0-.21v0h0c.8-.09,1.63-.17,2.45-.24s1.21-.12,1.54-.16h0v.23h0l-.56.08h-.21v.19c0,.41,0,1,.14,2.29,0,.52.09,1.06.14,1.53l.1.9v.2h.21a3.35,3.35,0,0,0,1.09-.21c.69-.29.69-.65.69-1.19h0l.27,0h0v0c0,.33,0,.67,0,1a3.58,3.58,0,0,0,.05.55v0h0c-.76,0-2.91.18-3.19.21-.49,0-1.26.14-1.64.19h-.11Z"/><path class="cls-13" d="M382.74,150.22c.38,0,1.16,0,1.65,0,.28,0,2.43.13,3.18.2h.13v-.12c0-.19,0-.29,0-.55s.07-.67.11-1l0-.12h-.13l-.26,0h-.12v.11c-.07.53-.11.83-.76,1a3.1,3.1,0,0,1-1.07.07h-.12v-.11c0-.36,0-.54,0-.9h0c0-.5,0-1,0-1.54.06-1.33.11-1.87.16-2.28v-.1h.79v-.1l0-.21,0-.12h-.14l-1.55,0-2.46-.07h-.16v.42h.12l.18,0h0l.33,0h.11v.09c0,.68,0,2,0,2.59s0,1.48-.05,2.13v.09h-.1l-.51.06h-.11v.42h.57Zm-.46-.1h0v-.21h0l.51,0H383v-.18c0-.64.05-1.43.06-2.13s0-1.91,0-2.59v-.18h-.2l-.33,0h0l-.18,0h0v-.23h0c.8,0,1.64,0,2.46.07l1.55,0h0l0,.21h-.79V145c-.05.41-.1,1-.16,2.29,0,.51,0,1-.05,1.53h0c0,.36,0,.54,0,.9v.2h.21a3.36,3.36,0,0,0,1.11-.07c.72-.2.77-.55.83-1.09h0l.27,0h0c0,.34-.08.68-.11,1s0,.37,0,.56h0c-.75-.07-2.91-.19-3.18-.2-.49,0-1.28,0-1.66,0h-.46Z"/><path class="cls-13" d="M394.43,145.28c-1.72-.31-3.05.2-3.66,1.34a3.07,3.07,0,0,0-.34,1.11,3.13,3.13,0,0,0,.48,2.2,3.78,3.78,0,0,0,2.5,1.36,3.45,3.45,0,0,0,2.41-.28,3.22,3.22,0,0,0,1.41-2.08,2.94,2.94,0,0,0-.26-2.12A3.46,3.46,0,0,0,394.43,145.28Zm1.34,5.64a3.37,3.37,0,0,1-2.34.28,3.66,3.66,0,0,1-2.43-1.32,3.06,3.06,0,0,1-.47-2.14,3,3,0,0,1,.34-1.08,2.46,2.46,0,0,1,1.36-1.17,4.12,4.12,0,0,1,2.18-.11,3.36,3.36,0,0,1,2.47,1.47,2.92,2.92,0,0,1,.25,2.06A3.11,3.11,0,0,1,395.77,150.92Z"/><path class="cls-13" d="M394.77,145.83a.79.79,0,0,0-.44-.23.77.77,0,0,0-.64.16,1.13,1.13,0,0,0-.28.34,8.25,8.25,0,0,0-.49,2v0a8.53,8.53,0,0,0-.17,1.86,1.52,1.52,0,0,0,.12.54.71.71,0,0,0,.51.41.79.79,0,0,0,.85-.59h0a10.93,10.93,0,0,0,.53-1.93h0a13.44,13.44,0,0,0,.25-1.85A1,1,0,0,0,394.77,145.83Zm-.12,2.55a11.08,11.08,0,0,1-.52,1.91h0c-.16.41-.41.59-.73.53s-.53-.57-.54-.85a8.92,8.92,0,0,1,.16-1.84v0a7.89,7.89,0,0,1,.48-1.94.75.75,0,0,1,.8-.45.74.74,0,0,1,.59.83,11.94,11.94,0,0,1-.25,1.84Z"/><path class="cls-13" d="M406.63,148.79h0l-.57-.21-.29-.11-.23-.09-.3-.11-.11,0,0,.1-.08.2,0,.09.11,0,.41.19.08,0V149a8.85,8.85,0,0,1-.34,1.37c0,.14-.16.51-.28.86l-.06.17-.05.15-.1.29-.13-.29c-.12-.27-.29-.66-.61-1.36v0c-.06-.14-.1-.21-.16-.36-.19-.41-1-2-1.13-2.34l0,0-.06,0-.3-.09h0l-.58-.17-.65-.19h0l-.52-.15-.13,0,0,.11-.05.2,0,.09.11,0,.13.06.3.12.1,0,0,.09c-.12.56-.2.92-.36,1.49,0,.12-.32,1.12-.59,1.89a8.72,8.72,0,0,1-.47,1.16l0,.07-.09,0L399,152h-.11l0,.09-.05.2,0,.11.11,0,.51.14.48.13.77.25.12,0,0-.11.06-.2,0-.1-.09,0-.34-.15-.08,0v-.08a17.83,17.83,0,0,1,.55-2.64l.08-.3c.06.12.09.17.14.29.22.43.49,1,.75,1.56v0l0,.09c.39.85.73,1.65.85,1.93s.12.27.19.46l0,0,.05,0,1.2.44.11,0,0-.1c.31-.86.38-1.06.52-1.42a20,20,0,0,1,1.55-3.39l0-.07.09,0,.46.13.11,0,0-.09.07-.2,0-.1-.12-.05Zm.56.33-.08.19v0h0l-.45-.13-.09,0-.09,0,0,.06,0,.07a19.51,19.51,0,0,0-1.55,3.41c-.14.36-.21.55-.52,1.41h0l-1.19-.44h0l-.2-.45c-.12-.28-.46-1.09-.84-1.94l0-.08v-.05l-.74-1.55-.14-.29c-.05-.1-.08-.15-.13-.26l-.08.27-.08.3a18.08,18.08,0,0,0-.54,2.65v.16l.07,0,.08,0,.33.15h0v0l-.06.2h0l-.77-.25-.48-.13-.51-.13h0l.05-.2h0l.37.06.09,0h.08l0-.06,0-.08a8.13,8.13,0,0,0,.48-1.17c.27-.77.56-1.77.59-1.88.17-.58.25-1,.37-1.5l0-.1,0-.08-.09,0-.1,0-.3-.12-.13-.06h0l.05-.2v0h0a4.28,4.28,0,0,1,.51.15h0l.65.2.58.16h0l.29.08h0c.17.33.94,1.94,1.13,2.34h0l.16.35v0h0c.32.71.49,1.09.61,1.37l.13.29.12.25.08-.25.1-.29.05-.15.06-.17c.12-.36.25-.73.29-.86a9.12,9.12,0,0,0,.34-1.39v-.16l-.07,0-.09,0-.41-.19h0l.08-.2h0l.29.11.23.08.29.12.58.21h0l.59.22h0Z"/><line class="cls-3" x1="295.61" y1="112.07" x2="295.61" y2="136.66"/></g></g></svg>