<svg xmlns="http://www.w3.org/2000/svg" viewBox="0 0 462.94 145.8"><defs><style>.cls-1{fill:#f29a3a;}</style></defs><g id="Layer_2" data-name="Layer 2"><g id="Layer_1-2" data-name="Layer 1"><path class="cls-1" d="M53,24.37l-5.93.8a21.5,21.5,0,0,0-2.4-8A18.08,18.08,0,0,0,40,11.61a19,19,0,0,0-6.55-3.28,29.33,29.33,0,0,0-8.07-1.06q-6.55,0-10.59,2.21a7.58,7.58,0,0,0-4,7.18,6,6,0,0,0,1.95,4.74,15.08,15.08,0,0,0,5.15,2.84,45.61,45.61,0,0,0,7.31,1.82q4.13.71,8.37,1.55a79.7,79.7,0,0,1,8.38,2.13,25.72,25.72,0,0,1,7.31,3.54A17.27,17.27,0,0,1,54.33,39a18,18,0,0,1,2,8.82,21.67,21.67,0,0,1-1.81,9.22,17.11,17.11,0,0,1-5.19,6.47,22.55,22.55,0,0,1-8.06,3.81A40.89,40.89,0,0,1,30.76,68.6a35.86,35.86,0,0,1-10.15-1.28,29.3,29.3,0,0,1-7.67-3.5,5.49,5.49,0,0,0-3-1.07Q9.3,62.75,8,64a8.42,8.42,0,0,0-2,3.15H0V42.9l5.85-.53a19.45,19.45,0,0,0,2.22,7.71A19,19,0,0,0,13,56a22.68,22.68,0,0,0,7.32,3.81,30.29,30.29,0,0,0,9.39,1.38q7.53,0,11.53-3c2.65-2,4-5.09,4-9.33A5.07,5.07,0,0,0,44,45.4a9.45,9.45,0,0,0-3.37-2.34,26.58,26.58,0,0,0-4.87-1.55Q33,40.9,29.87,40.4t-6.25-1q-3.15-.54-6.07-1.33a40.41,40.41,0,0,1-7.18-2.61A18.27,18.27,0,0,1,5,31.6,16.12,16.12,0,0,1,1.64,26a22.66,22.66,0,0,1-1.2-7.79A20.14,20.14,0,0,1,1.6,11.5,14.75,14.75,0,0,1,5.45,5.66,19.6,19.6,0,0,1,12.5,1.55,32.22,32.22,0,0,1,23.22,0a38.73,38.73,0,0,1,10,1.11A30.74,30.74,0,0,1,40.42,4,6.79,6.79,0,0,0,43.7,5.05,4,4,0,0,0,46.05,3.9a9.5,9.5,0,0,0,2.17-2.57H53Z"/><path class="cls-1" d="M132.69,6.65q-8,0-8,4.07V40.33a44.88,44.88,0,0,1-1.46,11.92,22.31,22.31,0,0,1-4.66,8.91,20.12,20.12,0,0,1-8.33,5.54,36.13,36.13,0,0,1-12.5,1.9A38,38,0,0,1,85,66.7a21.86,21.86,0,0,1-8.73-5.54,21.59,21.59,0,0,1-5-8.91,42,42,0,0,1-1.55-11.92V10.72q0-4.07-7.89-4.07V1.42h31V6.65q-5.06,0-7.31,1a3.27,3.27,0,0,0-2.26,3.05V40.33a46.79,46.79,0,0,0,.79,9.22A15.85,15.85,0,0,0,86.82,56,11.33,11.33,0,0,0,92,59.74a23.05,23.05,0,0,0,8.2,1.24,23.55,23.55,0,0,0,8.2-1.24A12.22,12.22,0,0,0,113.72,56a15.08,15.08,0,0,0,2.88-6.42,44.33,44.33,0,0,0,.84-9.22V10.72a3.28,3.28,0,0,0-2.3-3.05q-2.31-1-7.36-1V1.42h24.91Z"/><path class="cls-1" d="M225.75,6.56q-8,0-8,4.08V58.05q0,4.08,8,4.08v5.06H196.68V62.13q7.89,0,7.89-4.07V11.61L185.16,67.19H173.63L154.22,11.61V58.06q0,4.06,7.89,4.07v5.06H139V62.13q7.89,0,7.89-4.08V10.64q0-4.08-7.89-4.08V1.33h26.41l17.55,51.76L200.49,1.33h25.26Z"/><path class="cls-1" d="M319.08,6.56q-8,0-8,4.08V58.05q0,4.08,8,4.08v5.06H290V62.13q7.89,0,7.89-4.07V11.61L278.49,67.19H267L247.56,11.61V58.06c0,2.71,2.62,4.07,7.88,4.07v5.06H232.31V62.13q7.89,0,7.89-4.08V10.64q0-4.08-7.89-4.08V1.33h26.41l17.55,51.76L293.82,1.33h25.26Z"/><path class="cls-1" d="M384.5,21.27l-6.21.36Q377.23,8.24,367,8.24H347.09V29.69H357.2q5.31,0,6.11-10.72h5.59l-1.33,27.65h-5.41q-.89-11-5.58-11h-9.49V60.27h16.67q14.88,0,16.48-19l6.38.62L384.5,67.19H325.64V62.13q7.89,0,7.89-4.08V10.64q0-4.08-7.89-4.08V1.33H384.5Z"/><path class="cls-1" d="M462.94,57.43a10.94,10.94,0,0,1-2.57,7.41c-1.72,2-4.64,3-8.78,3q-6.91,0-9.84-3.23a11.52,11.52,0,0,1-2.92-8V49.9q0-7.44-2.13-10.86t-7.8-3.41H415.43V58q0,4.08,9.84,4.07v5.15H394V62c5.26,0,7.89-1.35,7.89-4.07V10.64q0-4.08-7.89-4.08V1.33h37.94a62.55,62.55,0,0,1,8.5.57,21.57,21.57,0,0,1,7.41,2.35,13.75,13.75,0,0,1,5.18,5A16.45,16.45,0,0,1,455,17.81a16.06,16.06,0,0,1-1.07,6.08,14.62,14.62,0,0,1-2.79,4.47,14.78,14.78,0,0,1-4,3,19,19,0,0,1-4.62,1.68,17.27,17.27,0,0,1,4.14,2.08,11.51,11.51,0,0,1,3.12,3.28,15.4,15.4,0,0,1,1.94,4.83,30.14,30.14,0,0,1,.66,6.74v8.15A4.31,4.31,0,0,0,453.2,61a2.62,2.62,0,0,0,2.07.93,2.72,2.72,0,0,0,2.16-.93,4.31,4.31,0,0,0,.81-2.88V53.89h4.7ZM415.43,8.77V29.69H430q5.31,0,8.15-2.44T441,19q0-10.2-11-10.2Z"/><path class="cls-1" d="M100.38,101.57l-5.94.8a21.42,21.42,0,0,0-2.39-8,18.16,18.16,0,0,0-4.7-5.58,19,19,0,0,0-6.56-3.28,29.22,29.22,0,0,0-8.07-1.06q-6.56,0-10.59,2.21a7.58,7.58,0,0,0-4,7.18,6,6,0,0,0,1.95,4.74,15.19,15.19,0,0,0,5.14,2.84,47.27,47.27,0,0,0,7.31,1.82q4.13.7,8.38,1.55a82.2,82.2,0,0,1,8.38,2.12,26,26,0,0,1,7.31,3.55,17.37,17.37,0,0,1,5.14,5.76,18,18,0,0,1,2,8.82,21.66,21.66,0,0,1-1.82,9.22,17.09,17.09,0,0,1-5.18,6.47,22.85,22.85,0,0,1-8.07,3.81,40.83,40.83,0,0,1-10.46,1.24A35.91,35.91,0,0,1,68,144.52,28.93,28.93,0,0,1,60.32,141a5.58,5.58,0,0,0-3-1.06q-.61,0-1.95,1.29a8.63,8.63,0,0,0-2,3.14H47.38V120.1l5.85-.54a19.45,19.45,0,0,0,2.21,7.72,18.9,18.9,0,0,0,4.92,5.89A22.73,22.73,0,0,0,67.67,137a30.36,30.36,0,0,0,9.4,1.37q7.53,0,11.52-3t4-9.34a5.06,5.06,0,0,0-1.24-3.45A9.45,9.45,0,0,0,88,120.26a26.83,26.83,0,0,0-4.87-1.55q-2.76-.63-5.85-1.11c-2.07-.32-4.16-.66-6.25-1a61.31,61.31,0,0,1-6.07-1.32,39.36,39.36,0,0,1-7.18-2.62,18.09,18.09,0,0,1-5.37-3.85A15.82,15.82,0,0,1,49,103.22a22.66,22.66,0,0,1-1.2-7.79A20.13,20.13,0,0,1,49,88.7a14.7,14.7,0,0,1,3.86-5.84,19.64,19.64,0,0,1,7-4.11A32,32,0,0,1,70.6,77.2a39.08,39.08,0,0,1,10,1.1,30.75,30.75,0,0,1,7.18,2.89,6.82,6.82,0,0,0,3.28,1.06,4,4,0,0,0,2.35-1.15,9.32,9.32,0,0,0,2.17-2.57h4.79Z"/><path class="cls-1" d="M168.1,98.47l-6.21.35q-1.06-13.38-11.34-13.38H130.69v21.45H140.8q5.31,0,6.11-10.72h5.59l-1.33,27.65h-5.41q-.88-11-5.58-11h-9.49v24.64h16.66q14.9,0,16.49-19l6.38.62-2.12,25.26H109.24v-5q7.89,0,7.89-4.08V87.84q0-4.08-7.89-4.08V78.53H168.1Z"/><path class="cls-1" d="M246.54,134.63A10.91,10.91,0,0,1,244,142c-1.72,2-4.64,3-8.78,3q-6.91,0-9.84-3.23a11.52,11.52,0,0,1-2.92-8V127.1c0-5-.71-8.58-2.13-10.86s-4-3.41-7.8-3.41H199v22.33q0,4.08,9.84,4.08v5.14H177.58v-5.14q7.89,0,7.89-4.08V87.83q0-4.06-7.89-4.07V78.53h37.94a62.81,62.81,0,0,1,8.51.57,21.58,21.58,0,0,1,7.4,2.35,13.61,13.61,0,0,1,5.18,5A16.45,16.45,0,0,1,238.56,95a16,16,0,0,1-1.07,6.07,14.2,14.2,0,0,1-6.74,7.49,19,19,0,0,1-4.62,1.69,16.91,16.91,0,0,1,4.14,2.08,11.51,11.51,0,0,1,3.12,3.28,15.4,15.4,0,0,1,1.94,4.83,30.08,30.08,0,0,1,.66,6.74v8.15a4.31,4.31,0,0,0,.81,2.88,2.62,2.62,0,0,0,2.07.93,2.72,2.72,0,0,0,2.16-.93,4.31,4.31,0,0,0,.81-2.88v-4.25h4.7ZM199,86v20.92h14.54q5.31,0,8.15-2.44t2.84-8.28q0-10.2-11-10.2Z"/><path class="cls-1" d="M282.43,83.76q-7.87,0-7.88,4.08v47.41q0,4.08,7.88,4.08v5H253v-5q8,0,8-4.08V87.84q0-4.08-8-4.08V78.53h29.42Z"/><path class="cls-1" d="M348.82,98.47l-6.2.35q-1.06-13.38-11.35-13.38H311.42v21.45h10.1q5.33,0,6.12-10.72h5.58l-1.33,27.65h-5.41q-.89-11-5.58-11h-9.48v24.64h16.66q14.9,0,16.49-19l6.38.62-2.13,25.26H290v-5q7.89,0,7.89-4.08V87.84q0-4.08-7.89-4.08V78.53h58.85Z"/><path class="cls-1" d="M412.28,101.57l-5.94.8a21.42,21.42,0,0,0-2.39-8,18.16,18.16,0,0,0-4.7-5.58,18.91,18.91,0,0,0-6.56-3.28,29.2,29.2,0,0,0-8.06-1.06q-6.56,0-10.59,2.21a7.58,7.58,0,0,0-4,7.18A6,6,0,0,0,372,98.6a15.25,15.25,0,0,0,5.15,2.84,46.7,46.7,0,0,0,7.31,1.82q4.13.7,8.37,1.55a82.2,82.2,0,0,1,8.38,2.12,25.87,25.87,0,0,1,7.31,3.55,17.27,17.27,0,0,1,5.14,5.76,18,18,0,0,1,1.95,8.82,21.67,21.67,0,0,1-1.81,9.22,17.11,17.11,0,0,1-5.19,6.47,22.77,22.77,0,0,1-8.07,3.81A40.75,40.75,0,0,1,390,145.8a35.86,35.86,0,0,1-10.15-1.28,29,29,0,0,1-7.67-3.51,5.55,5.55,0,0,0-3-1.06q-.63,0-1.95,1.29a8.38,8.38,0,0,0-2,3.14h-5.94V120.1l5.85-.54a19.61,19.61,0,0,0,2.21,7.72,19.17,19.17,0,0,0,4.92,5.89,22.68,22.68,0,0,0,7.32,3.81,30.25,30.25,0,0,0,9.39,1.37c5,0,8.87-1,11.52-3s4-5.09,4-9.34a5.06,5.06,0,0,0-1.24-3.45,9.45,9.45,0,0,0-3.37-2.34,26.58,26.58,0,0,0-4.87-1.55q-2.75-.63-5.85-1.11t-6.25-1a61.94,61.94,0,0,1-6.07-1.32,39.64,39.64,0,0,1-7.18-2.62,17.91,17.91,0,0,1-5.36-3.85,16,16,0,0,1-3.37-5.57,22.66,22.66,0,0,1-1.2-7.79,20.14,20.14,0,0,1,1.16-6.73,14.68,14.68,0,0,1,3.85-5.84,19.6,19.6,0,0,1,7-4.11A32,32,0,0,1,382.5,77.2a39.21,39.21,0,0,1,10,1.1,30.92,30.92,0,0,1,7.18,2.89A6.79,6.79,0,0,0,403,82.25a4,4,0,0,0,2.35-1.15,9.68,9.68,0,0,0,2.17-2.57h4.78Z"/></g></g></svg>