<svg xmlns="http://www.w3.org/2000/svg" viewBox="0 0 1778.99 1778.99"><defs><style>.cls-1{fill:#d9dbd8;}</style></defs><g id="Layer_2" data-name="Layer 2"><g id="Layer_1-2" data-name="Layer 1"><g id="_Radial_Repeat_" data-name="&lt;Radial Repeat&gt;"><polygon class="cls-1" points="910.85 1778.99 830.26 1777.27 857.32 1330.18 902.87 1331.15 910.85 1778.99"/></g><g id="_Radial_Repeat_2" data-name="&lt;Radial Repeat&gt;"><polygon class="cls-1" points="784.04 1772.97 704.52 1759.81 794.93 1321.11 839.88 1328.56 784.04 1772.97"/></g><g id="_Radial_Repeat_3" data-name="&lt;Radial Repeat&gt;"><polygon class="cls-1" points="659.38 1748.97 582.54 1724.62 734.47 1303.26 777.9 1317.03 659.38 1748.97"/></g><g id="_Radial_Repeat_4" data-name="&lt;Radial Repeat&gt;"><polygon class="cls-1" points="539.41 1707.48 466.82 1672.44 677.16 1276.99 718.19 1296.79 539.41 1707.48"/></g><g id="_Radial_Repeat_5" data-name="&lt;Radial Repeat&gt;"><polygon class="cls-1" points="426.56 1649.33 359.69 1604.32 624.17 1242.83 661.97 1268.27 426.56 1649.33"/></g><g id="_Radial_Repeat_6" data-name="&lt;Radial Repeat&gt;"><polygon class="cls-1" points="323.14 1575.71 263.36 1521.64 576.59 1201.47 610.38 1232.03 323.14 1575.71"/></g><g id="_Radial_Repeat_7" data-name="&lt;Radial Repeat&gt;"><polygon class="cls-1" points="231.24 1488.13 179.77 1426.1 535.38 1153.76 564.47 1188.82 231.24 1488.13"/></g><g id="_Radial_Repeat_8" data-name="&lt;Radial Repeat&gt;"><polygon class="cls-1" points="152.75 1388.35 110.63 1319.63 501.37 1100.68 525.18 1139.52 152.75 1388.35"/></g><g id="_Radial_Repeat_9" data-name="&lt;Radial Repeat&gt;"><polygon class="cls-1" points="89.25 1278.43 57.34 1204.41 475.27 1043.29 493.31 1085.13 89.25 1278.43"/></g><g id="_Radial_Repeat_10" data-name="&lt;Radial Repeat&gt;"><polygon class="cls-1" points="42.05 1160.58 20.99 1082.78 457.6 982.78 469.5 1026.75 42.05 1160.58"/></g><g id="_Radial_Repeat_11" data-name="&lt;Radial Repeat&gt;"><polygon class="cls-1" points="12.09 1037.22 2.32 957.21 448.72 920.36 454.24 965.58 12.09 1037.22"/></g><g id="_Radial_Repeat_12" data-name="&lt;Radial Repeat&gt;"><polygon class="cls-1" points="0 910.85 1.72 830.26 448.81 857.32 447.84 902.87 0 910.85"/></g><g id="_Radial_Repeat_13" data-name="&lt;Radial Repeat&gt;"><polygon class="cls-1" points="6.01 784.04 19.18 704.52 457.88 794.93 450.43 839.88 6.01 784.04"/></g><g id="_Radial_Repeat_14" data-name="&lt;Radial Repeat&gt;"><polygon class="cls-1" points="30.02 659.38 54.37 582.54 475.73 734.47 461.96 777.9 30.02 659.38"/></g><g id="_Radial_Repeat_15" data-name="&lt;Radial Repeat&gt;"><polygon class="cls-1" points="71.51 539.41 106.55 466.82 502 677.16 482.2 718.19 71.51 539.41"/></g><g id="_Radial_Repeat_16" data-name="&lt;Radial Repeat&gt;"><polygon class="cls-1" points="129.66 426.56 174.67 359.69 536.16 624.17 510.72 661.97 129.66 426.56"/></g><g id="_Radial_Repeat_17" data-name="&lt;Radial Repeat&gt;"><polygon class="cls-1" points="203.28 323.14 257.35 263.36 577.52 576.59 546.96 610.38 203.28 323.14"/></g><g id="_Radial_Repeat_18" data-name="&lt;Radial Repeat&gt;"><polygon class="cls-1" points="290.86 231.24 352.89 179.77 625.23 535.38 590.17 564.47 290.86 231.24"/></g><g id="_Radial_Repeat_19" data-name="&lt;Radial Repeat&gt;"><polygon class="cls-1" points="390.63 152.75 459.36 110.63 678.31 501.37 639.47 525.18 390.63 152.75"/></g><g id="_Radial_Repeat_20" data-name="&lt;Radial Repeat&gt;"><polygon class="cls-1" points="500.56 89.25 574.58 57.34 735.7 475.27 693.86 493.31 500.56 89.25"/></g><g id="_Radial_Repeat_21" data-name="&lt;Radial Repeat&gt;"><polygon class="cls-1" points="618.41 42.05 696.21 20.99 796.21 457.6 752.24 469.5 618.41 42.05"/></g><g id="_Radial_Repeat_22" data-name="&lt;Radial Repeat&gt;"><polygon class="cls-1" points="741.77 12.09 821.78 2.32 858.63 448.72 813.4 454.24 741.77 12.09"/></g><g id="_Radial_Repeat_23" data-name="&lt;Radial Repeat&gt;"><polygon class="cls-1" points="868.14 0 948.73 1.72 921.67 448.81 876.12 447.84 868.14 0"/></g><g id="_Radial_Repeat_24" data-name="&lt;Radial Repeat&gt;"><polygon class="cls-1" points="994.95 6.01 1074.47 19.18 984.06 457.88 939.11 450.43 994.95 6.01"/></g><g id="_Radial_Repeat_25" data-name="&lt;Radial Repeat&gt;"><polygon class="cls-1" points="1119.61 30.02 1196.44 54.37 1044.52 475.73 1001.09 461.96 1119.61 30.02"/></g><g id="_Radial_Repeat_26" data-name="&lt;Radial Repeat&gt;"><polygon class="cls-1" points="1239.58 71.51 1312.17 106.55 1101.83 502 1060.8 482.2 1239.58 71.51"/></g><g id="_Radial_Repeat_27" data-name="&lt;Radial Repeat&gt;"><polygon class="cls-1" points="1352.43 129.66 1419.29 174.67 1154.82 536.16 1117.02 510.72 1352.43 129.66"/></g><g id="_Radial_Repeat_28" data-name="&lt;Radial Repeat&gt;"><polygon class="cls-1" points="1455.85 203.28 1515.63 257.35 1202.4 577.52 1168.61 546.96 1455.85 203.28"/></g><g id="_Radial_Repeat_29" data-name="&lt;Radial Repeat&gt;"><polygon class="cls-1" points="1547.75 290.86 1599.22 352.89 1243.61 625.23 1214.52 590.17 1547.75 290.86"/></g><g id="_Radial_Repeat_30" data-name="&lt;Radial Repeat&gt;"><polygon class="cls-1" points="1626.24 390.63 1668.36 459.36 1277.62 678.31 1253.81 639.47 1626.24 390.63"/></g><g id="_Radial_Repeat_31" data-name="&lt;Radial Repeat&gt;"><polygon class="cls-1" points="1689.74 500.56 1721.65 574.58 1303.72 735.7 1285.68 693.86 1689.74 500.56"/></g><g id="_Radial_Repeat_32" data-name="&lt;Radial Repeat&gt;"><polygon class="cls-1" points="1736.94 618.41 1758 696.21 1321.39 796.21 1309.49 752.24 1736.94 618.41"/></g><g id="_Radial_Repeat_33" data-name="&lt;Radial Repeat&gt;"><polygon class="cls-1" points="1766.9 741.77 1776.66 821.78 1330.27 858.63 1324.75 813.4 1766.9 741.77"/></g><g id="_Radial_Repeat_34" data-name="&lt;Radial Repeat&gt;"><polygon class="cls-1" points="1778.99 868.14 1777.27 948.73 1330.18 921.67 1331.15 876.12 1778.99 868.14"/></g><g id="_Radial_Repeat_35" data-name="&lt;Radial Repeat&gt;"><polygon class="cls-1" points="1772.97 994.95 1759.8 1074.47 1321.11 984.06 1328.56 939.11 1772.97 994.95"/></g><g id="_Radial_Repeat_36" data-name="&lt;Radial Repeat&gt;"><polygon class="cls-1" points="1748.97 1119.61 1724.62 1196.44 1303.26 1044.52 1317.03 1001.09 1748.97 1119.61"/></g><g id="_Radial_Repeat_37" data-name="&lt;Radial Repeat&gt;"><polygon class="cls-1" points="1707.48 1239.58 1672.44 1312.17 1276.99 1101.83 1296.79 1060.8 1707.48 1239.58"/></g><g id="_Radial_Repeat_38" data-name="&lt;Radial Repeat&gt;"><polygon class="cls-1" points="1649.33 1352.43 1604.32 1419.29 1242.82 1154.82 1268.27 1117.02 1649.33 1352.43"/></g><g id="_Radial_Repeat_39" data-name="&lt;Radial Repeat&gt;"><polygon class="cls-1" points="1575.71 1455.85 1521.64 1515.63 1201.47 1202.4 1232.03 1168.61 1575.71 1455.85"/></g><g id="_Radial_Repeat_40" data-name="&lt;Radial Repeat&gt;"><polygon class="cls-1" points="1488.13 1547.75 1426.1 1599.22 1153.76 1243.61 1188.82 1214.52 1488.13 1547.75"/></g><g id="_Radial_Repeat_41" data-name="&lt;Radial Repeat&gt;"><polygon class="cls-1" points="1388.35 1626.24 1319.63 1668.36 1100.68 1277.62 1139.52 1253.81 1388.35 1626.24"/></g><g id="_Radial_Repeat_42" data-name="&lt;Radial Repeat&gt;"><polygon class="cls-1" points="1278.43 1689.74 1204.41 1721.65 1043.29 1303.72 1085.13 1285.68 1278.43 1689.74"/></g><g id="_Radial_Repeat_43" data-name="&lt;Radial Repeat&gt;"><polygon class="cls-1" points="1160.58 1736.94 1082.78 1758 982.78 1321.39 1026.75 1309.49 1160.58 1736.94"/></g><g id="_Radial_Repeat_44" data-name="&lt;Radial Repeat&gt;"><polygon class="cls-1" points="1037.22 1766.9 957.21 1776.66 920.36 1330.27 965.59 1324.75 1037.22 1766.9"/></g></g></g></svg>